<mxfile host="Electron" modified="2024-04-18T09:24:51.916Z" agent="Mozilla/5.0 (Windows NT 10.0; Win64; x64) AppleWebKit/537.36 (KHTML, like Gecko) draw.io/23.1.5 Chrome/120.0.6099.109 Electron/28.1.0 Safari/537.36" etag="CHUJv2HNKP6eviRHz8wi" version="23.1.5" type="device">
  <diagram id="815qKGOkGFS05UaZDFHD" name="第 1 页">
    <mxGraphModel dx="1418" dy="820" grid="1" gridSize="10" guides="1" tooltips="1" connect="1" arrows="1" fold="1" page="1" pageScale="1" pageWidth="827" pageHeight="1169" math="0" shadow="0">
      <root>
        <mxCell id="0" />
        <mxCell id="1" parent="0" />
        <mxCell id="1bu_Jafku8_IqMxfICmf-7" style="edgeStyle=orthogonalEdgeStyle;rounded=0;orthogonalLoop=1;jettySize=auto;html=1;exitX=0.5;exitY=1;exitDx=0;exitDy=0;entryX=0.5;entryY=0;entryDx=0;entryDy=0;" parent="1" target="1bu_Jafku8_IqMxfICmf-5" edge="1">
          <mxGeometry relative="1" as="geometry">
            <mxPoint x="531" y="140" as="sourcePoint" />
            <Array as="points">
              <mxPoint x="531" y="125" />
              <mxPoint x="695" y="125" />
            </Array>
          </mxGeometry>
        </mxCell>
        <mxCell id="1bu_Jafku8_IqMxfICmf-14" style="edgeStyle=orthogonalEdgeStyle;rounded=0;orthogonalLoop=1;jettySize=auto;html=1;exitX=0.5;exitY=1;exitDx=0;exitDy=0;entryX=0.5;entryY=0;entryDx=0;entryDy=0;" parent="1" source="1bu_Jafku8_IqMxfICmf-1" target="1bu_Jafku8_IqMxfICmf-13" edge="1">
          <mxGeometry relative="1" as="geometry" />
        </mxCell>
        <mxCell id="1bu_Jafku8_IqMxfICmf-37" style="edgeStyle=orthogonalEdgeStyle;rounded=0;orthogonalLoop=1;jettySize=auto;html=1;fontColor=#3333FF;" parent="1" source="1bu_Jafku8_IqMxfICmf-1" target="1bu_Jafku8_IqMxfICmf-36" edge="1">
          <mxGeometry relative="1" as="geometry">
            <Array as="points">
              <mxPoint x="328" y="125" />
            </Array>
          </mxGeometry>
        </mxCell>
        <mxCell id="1bu_Jafku8_IqMxfICmf-41" style="edgeStyle=orthogonalEdgeStyle;rounded=0;orthogonalLoop=1;jettySize=auto;html=1;exitX=0;exitY=0.5;exitDx=0;exitDy=0;fontColor=#3333FF;" parent="1" edge="1">
          <mxGeometry relative="1" as="geometry">
            <mxPoint x="429" y="125" as="sourcePoint" />
            <mxPoint x="195.00671140939596" y="220" as="targetPoint" />
          </mxGeometry>
        </mxCell>
        <mxCell id="1bu_Jafku8_IqMxfICmf-1" value="&lt;b&gt;Tryptophan&lt;br&gt;(Trp)&lt;/b&gt;" style="rounded=0;whiteSpace=wrap;html=1;" parent="1" vertex="1">
          <mxGeometry x="422" y="110" width="110" height="33" as="geometry" />
        </mxCell>
        <mxCell id="1bu_Jafku8_IqMxfICmf-3" value="&lt;b&gt;Indole-3-acetic acid&lt;br&gt;(IAA)&lt;/b&gt;" style="rounded=0;whiteSpace=wrap;html=1;" parent="1" vertex="1">
          <mxGeometry x="416" y="450" width="122" height="33" as="geometry" />
        </mxCell>
        <mxCell id="1bu_Jafku8_IqMxfICmf-44" style="edgeStyle=orthogonalEdgeStyle;rounded=0;orthogonalLoop=1;jettySize=auto;html=1;exitX=0.5;exitY=1;exitDx=0;exitDy=0;fontColor=#3333FF;" parent="1" source="1bu_Jafku8_IqMxfICmf-4" target="1bu_Jafku8_IqMxfICmf-43" edge="1">
          <mxGeometry relative="1" as="geometry" />
        </mxCell>
        <mxCell id="1bu_Jafku8_IqMxfICmf-4" value="Indole-3-acetaldoxime &lt;br&gt;(IAOX)" style="rounded=0;whiteSpace=wrap;html=1;" parent="1" vertex="1">
          <mxGeometry x="130" y="220" width="130" height="33" as="geometry" />
        </mxCell>
        <mxCell id="3EwBPEEV1gNSPiPJoF6L-1" style="edgeStyle=orthogonalEdgeStyle;rounded=0;orthogonalLoop=1;jettySize=auto;html=1;exitX=0.5;exitY=1;exitDx=0;exitDy=0;entryX=1;entryY=0.75;entryDx=0;entryDy=0;" parent="1" source="1bu_Jafku8_IqMxfICmf-5" target="1bu_Jafku8_IqMxfICmf-3" edge="1">
          <mxGeometry relative="1" as="geometry">
            <mxPoint x="539" y="474.75" as="targetPoint" />
          </mxGeometry>
        </mxCell>
        <mxCell id="1bu_Jafku8_IqMxfICmf-5" value="Indole-3-acetamide&lt;br&gt;(IAM)" style="rounded=0;whiteSpace=wrap;html=1;" parent="1" vertex="1">
          <mxGeometry x="640" y="280" width="110" height="33" as="geometry" />
        </mxCell>
        <mxCell id="1bu_Jafku8_IqMxfICmf-16" style="edgeStyle=orthogonalEdgeStyle;rounded=0;orthogonalLoop=1;jettySize=auto;html=1;" parent="1" source="1bu_Jafku8_IqMxfICmf-12" target="1bu_Jafku8_IqMxfICmf-3" edge="1">
          <mxGeometry relative="1" as="geometry" />
        </mxCell>
        <mxCell id="1bu_Jafku8_IqMxfICmf-12" value="Indole-3-acetaldehyde&lt;br&gt;(IAAld)" style="rounded=0;whiteSpace=wrap;html=1;" parent="1" vertex="1">
          <mxGeometry x="412" y="335" width="130" height="33" as="geometry" />
        </mxCell>
        <mxCell id="1bu_Jafku8_IqMxfICmf-15" style="edgeStyle=orthogonalEdgeStyle;rounded=0;orthogonalLoop=1;jettySize=auto;html=1;exitX=0.5;exitY=1;exitDx=0;exitDy=0;" parent="1" source="1bu_Jafku8_IqMxfICmf-13" target="1bu_Jafku8_IqMxfICmf-12" edge="1">
          <mxGeometry relative="1" as="geometry" />
        </mxCell>
        <mxCell id="3EwBPEEV1gNSPiPJoF6L-2" style="edgeStyle=orthogonalEdgeStyle;rounded=0;orthogonalLoop=1;jettySize=auto;html=1;exitX=1;exitY=0.5;exitDx=0;exitDy=0;entryX=1;entryY=0.25;entryDx=0;entryDy=0;" parent="1" source="1bu_Jafku8_IqMxfICmf-13" target="1bu_Jafku8_IqMxfICmf-3" edge="1">
          <mxGeometry relative="1" as="geometry">
            <mxPoint x="549" y="236.4999999999999" as="sourcePoint" />
            <mxPoint x="539" y="458.25" as="targetPoint" />
            <Array as="points">
              <mxPoint x="600" y="237" />
              <mxPoint x="600" y="458" />
            </Array>
          </mxGeometry>
        </mxCell>
        <mxCell id="1bu_Jafku8_IqMxfICmf-13" value="Indole-3-pyruvic acid (IPA)" style="rounded=0;whiteSpace=wrap;html=1;" parent="1" vertex="1">
          <mxGeometry x="412" y="220" width="130" height="33" as="geometry" />
        </mxCell>
        <mxCell id="1bu_Jafku8_IqMxfICmf-38" style="edgeStyle=orthogonalEdgeStyle;rounded=0;orthogonalLoop=1;jettySize=auto;html=1;exitX=0.5;exitY=1;exitDx=0;exitDy=0;entryX=0;entryY=0.5;entryDx=0;entryDy=0;fontColor=#3333FF;" parent="1" source="1bu_Jafku8_IqMxfICmf-36" target="1bu_Jafku8_IqMxfICmf-12" edge="1">
          <mxGeometry relative="1" as="geometry" />
        </mxCell>
        <mxCell id="1bu_Jafku8_IqMxfICmf-36" value="Tryptamine&lt;br&gt;(TAM)" style="rounded=0;whiteSpace=wrap;html=1;" parent="1" vertex="1">
          <mxGeometry x="273" y="220" width="110" height="33" as="geometry" />
        </mxCell>
        <mxCell id="3EwBPEEV1gNSPiPJoF6L-17" style="edgeStyle=orthogonalEdgeStyle;rounded=0;orthogonalLoop=1;jettySize=auto;html=1;exitX=0;exitY=0.5;exitDx=0;exitDy=0;entryX=1;entryY=0.5;entryDx=0;entryDy=0;" parent="1" source="1bu_Jafku8_IqMxfICmf-43" target="1bu_Jafku8_IqMxfICmf-5" edge="1">
          <mxGeometry relative="1" as="geometry">
            <mxPoint x="760" y="290" as="targetPoint" />
            <Array as="points">
              <mxPoint x="120" y="347" />
              <mxPoint x="120" y="510" />
              <mxPoint x="780" y="510" />
              <mxPoint x="780" y="297" />
              <mxPoint x="750" y="297" />
            </Array>
          </mxGeometry>
        </mxCell>
        <mxCell id="1bu_Jafku8_IqMxfICmf-43" value="Indole-3-acetonitrile&lt;br&gt;(IAN)" style="rounded=0;whiteSpace=wrap;html=1;" parent="1" vertex="1">
          <mxGeometry x="140" y="330" width="110" height="33" as="geometry" />
        </mxCell>
        <mxCell id="3EwBPEEV1gNSPiPJoF6L-3" value="&lt;font color=&quot;#4d4d4d&quot;&gt;Aminotransferase&lt;/font&gt;" style="rounded=0;whiteSpace=wrap;html=1;fillColor=none;strokeColor=none;" parent="1" vertex="1">
          <mxGeometry x="363" y="170" width="120" height="25" as="geometry" />
        </mxCell>
        <mxCell id="3EwBPEEV1gNSPiPJoF6L-4" value="&lt;font color=&quot;#4d4d4d&quot;&gt;Trp monooxygenase&lt;/font&gt;" style="rounded=0;whiteSpace=wrap;html=1;fillColor=none;strokeColor=none;" parent="1" vertex="1">
          <mxGeometry x="567" y="170" width="120" height="25" as="geometry" />
        </mxCell>
        <mxCell id="3EwBPEEV1gNSPiPJoF6L-5" value="&lt;font color=&quot;#4d4d4d&quot;&gt;Trp decarboxylase&lt;/font&gt;" style="rounded=0;whiteSpace=wrap;html=1;fillColor=none;strokeColor=none;" parent="1" vertex="1">
          <mxGeometry x="210" y="170" width="120" height="25" as="geometry" />
        </mxCell>
        <mxCell id="3EwBPEEV1gNSPiPJoF6L-6" value="&lt;font color=&quot;#4d4d4d&quot;&gt;Oxidoreductase&lt;/font&gt;" style="rounded=0;whiteSpace=wrap;html=1;fillColor=none;strokeColor=none;" parent="1" vertex="1">
          <mxGeometry x="80" y="170" width="120" height="25" as="geometry" />
        </mxCell>
        <mxCell id="3EwBPEEV1gNSPiPJoF6L-7" value="&lt;font color=&quot;#4d4d4d&quot;&gt;IAOX dehydratase&lt;/font&gt;" style="rounded=0;whiteSpace=wrap;html=1;fillColor=none;strokeColor=none;" parent="1" vertex="1">
          <mxGeometry x="80" y="288" width="120" height="25" as="geometry" />
        </mxCell>
        <mxCell id="3EwBPEEV1gNSPiPJoF6L-8" value="&lt;font color=&quot;#4d4d4d&quot;&gt;Nitrilase&lt;/font&gt;" style="rounded=0;whiteSpace=wrap;html=1;fillColor=none;strokeColor=none;" parent="1" vertex="1">
          <mxGeometry x="126" y="390" width="80" height="25" as="geometry" />
        </mxCell>
        <mxCell id="3EwBPEEV1gNSPiPJoF6L-10" style="edgeStyle=orthogonalEdgeStyle;rounded=0;orthogonalLoop=1;jettySize=auto;html=1;exitX=0.5;exitY=1;exitDx=0;exitDy=0;entryX=0;entryY=0.582;entryDx=0;entryDy=0;entryPerimeter=0;" parent="1" source="1bu_Jafku8_IqMxfICmf-43" target="1bu_Jafku8_IqMxfICmf-3" edge="1">
          <mxGeometry relative="1" as="geometry" />
        </mxCell>
        <mxCell id="3EwBPEEV1gNSPiPJoF6L-11" value="&lt;font color=&quot;#4d4d4d&quot;&gt;Nitrile hydratase&lt;/font&gt;" style="rounded=0;whiteSpace=wrap;html=1;fillColor=none;strokeColor=none;" parent="1" vertex="1">
          <mxGeometry x="430" y="510" width="100" height="25" as="geometry" />
        </mxCell>
        <mxCell id="3EwBPEEV1gNSPiPJoF6L-12" value="&lt;font color=&quot;#4d4d4d&quot;&gt;IAM hydrolase&lt;/font&gt;" style="rounded=0;whiteSpace=wrap;html=1;fillColor=none;strokeColor=none;" parent="1" vertex="1">
          <mxGeometry x="590" y="339" width="120" height="25" as="geometry" />
        </mxCell>
        <mxCell id="3EwBPEEV1gNSPiPJoF6L-13" value="&lt;font color=&quot;#4d4d4d&quot;&gt;YUCCA&lt;/font&gt;" style="rounded=0;whiteSpace=wrap;html=1;fillColor=none;strokeColor=none;" parent="1" vertex="1">
          <mxGeometry x="510" y="339" width="120" height="25" as="geometry" />
        </mxCell>
        <mxCell id="3EwBPEEV1gNSPiPJoF6L-15" value="&lt;font color=&quot;#4d4d4d&quot;&gt;IPDC&lt;/font&gt;" style="rounded=0;whiteSpace=wrap;html=1;fillColor=none;strokeColor=none;" parent="1" vertex="1">
          <mxGeometry x="383" y="288" width="120" height="25" as="geometry" />
        </mxCell>
        <mxCell id="3EwBPEEV1gNSPiPJoF6L-16" value="&lt;font color=&quot;#4d4d4d&quot;&gt;Amine oxidase&lt;/font&gt;" style="rounded=0;whiteSpace=wrap;html=1;fillColor=none;strokeColor=none;" parent="1" vertex="1">
          <mxGeometry x="220" y="288" width="120" height="25" as="geometry" />
        </mxCell>
      </root>
    </mxGraphModel>
  </diagram>
</mxfile>
